<svg id="visual" viewBox="0 0 900 450" width="900" height="450" xmlns="http://www.w3.org/2000/svg" xmlns:xlink="http://www.w3.org/1999/xlink" version="1.1"><path d="M0 67L12.5 67.5C25 68 50 69 75 65.7C100 62.3 125 54.7 150 54.5C175 54.3 200 61.7 225 55.8C250 50 275 31 300 25.5C325 20 350 28 375 33.8C400 39.7 425 43.3 450 41.3C475 39.3 500 31.7 525 26.3C550 21 575 18 600 23.5C625 29 650 43 675 49.3C700 55.7 725 54.3 750 56.7C775 59 800 65 825 63.3C850 61.7 875 52.3 887.5 47.7L900 43L900 0L887.5 0C875 0 850 0 825 0C800 0 775 0 750 0C725 0 700 0 675 0C650 0 625 0 600 0C575 0 550 0 525 0C500 0 475 0 450 0C425 0 400 0 375 0C350 0 325 0 300 0C275 0 250 0 225 0C200 0 175 0 150 0C125 0 100 0 75 0C50 0 25 0 12.5 0L0 0Z" fill="#b92222" stroke-linecap="round" stroke-linejoin="miter"></path></svg>