<svg id="visual" viewBox="0 0 900 450" width="900" height="450" xmlns="http://www.w3.org/2000/svg" xmlns:xlink="http://www.w3.org/1999/xlink" version="1.1"><path d="M0 401L12.5 401.7C25 402.3 50 403.7 75 408.2C100 412.7 125 420.3 150 418.2C175 416 200 404 225 401.7C250 399.3 275 406.7 300 411.3C325 416 350 418 375 419.2C400 420.3 425 420.7 450 414.7C475 408.7 500 396.3 525 397C550 397.7 575 411.3 600 410.3C625 409.3 650 393.7 675 395C700 396.3 725 414.7 750 423C775 431.3 800 429.7 825 427.5C850 425.3 875 422.7 887.5 421.3L900 420L900 451L887.5 451C875 451 850 451 825 451C800 451 775 451 750 451C725 451 700 451 675 451C650 451 625 451 600 451C575 451 550 451 525 451C500 451 475 451 450 451C425 451 400 451 375 451C350 451 325 451 300 451C275 451 250 451 225 451C200 451 175 451 150 451C125 451 100 451 75 451C50 451 25 451 12.5 451L0 451Z" fill="#b92222" stroke-linecap="round" stroke-linejoin="miter"></path></svg>