<svg id="visual" viewBox="0 0 900 600" width="900" height="600" xmlns="http://www.w3.org/2000/svg" xmlns:xlink="http://www.w3.org/1999/xlink" version="1.1"><path d="M0 560L15 562C30 564 60 568 90 571.3C120 574.7 150 577.3 180 573.8C210 570.3 240 560.7 270 558.5C300 556.3 330 561.7 360 566.8C390 572 420 577 450 578.7C480 580.3 510 578.7 540 574.5C570 570.3 600 563.7 630 565.3C660 567 690 577 720 576.7C750 576.3 780 565.7 810 561.7C840 557.7 870 560.3 885 561.7L900 563L900 601L885 601C870 601 840 601 810 601C780 601 750 601 720 601C690 601 660 601 630 601C600 601 570 601 540 601C510 601 480 601 450 601C420 601 390 601 360 601C330 601 300 601 270 601C240 601 210 601 180 601C150 601 120 601 90 601C60 601 30 601 15 601L0 601Z" fill="#000000" stroke-linecap="round" stroke-linejoin="miter"></path></svg>